<svg xmlns:xlink="http://www.w3.org/1999/xlink" xmlns="http://www.w3.org/2000/svg" id="3235bcb6-ccdb-4a81-a2c4-ae54cafd8857" viewBox="0 0 567.9 435.9" width="567.9"  height="435.9" ><defs><style>.\34 0382624-25ed-44a9-8c60-00b2097851fb{fill:#916e4f;}.\36 79bb35f-efcf-4113-95fe-20d61b3793fd{fill:#EDE7D9;}</style></defs><title>al-maaden</title><path class="40382624-25ed-44a9-8c60-00b2097851fb" d="M189,0H382.2c7.4.2,15.4,2.4,20.2,8.5,5.7,7,6.4,16.4,6.9,25.1-1.2-2.9-2.2-6.2-5.1-7.9-5.7-3.7-12.7-4.3-19.3-4.5h-205V175c.1,2.5.2,5.2,1.6,7.3,2.4,3.9,8,5.7,12,3.2,2.9-1.7,4.3-5.2,4.2-8.5V76.8c10.3-6,17.4-16.1,22-26.8V169a98.92,98.92,0,0,1-.3,12.2,30.12,30.12,0,0,1-11.8,20.5A30.41,30.41,0,0,1,158.9,177V28c-.1-7.4,1.7-15.5,7.5-20.6C172.6,1.9,181.1.7,189,0Z" transform="translate(-0.1 0)"/><path class="40382624-25ed-44a9-8c60-00b2097851fb" d="M204.5,29.7c4.6-1.6,11.6-.9,13.2,4.6,1.3,4.3.8,10.4-3.8,12.5-4.5,1.7-11,1.4-13.4-3.4C198.6,38.8,199.1,31.5,204.5,29.7Z" transform="translate(-0.1 0)"/><path class="40382624-25ed-44a9-8c60-00b2097851fb" d="M348,30.8h35c5.9.1,12,.8,17,4.1,5.3,3.5,8,9.9,8,16.1V236H189c-7.4,0-15.3-2-20.2-7.9-6-7-6.8-16.6-7.2-25.4,1.1,2.9,2.1,6.1,5,7.6,6.4,3.9,14.1,3.8,21.3,4.1,15.9.1,31.7,0,47.6,0V57.5c10.2-5.9,17-16.1,21.5-26.7.5,61.2.1,122.4.2,183.5h18.2V55.7c0-6.6,2.4-13.5,7.6-17.9,6.8-6,16.3-7.1,25-6.5,7.3.5,15.1,2.9,19.8,8.8,3.6,4.3,4.7,10.2,4.7,15.7v90.4c-10,6-17,16-21.5,26.6V56.8c.3-4-2.6-8.4-7-8-4.4-.5-7.4,4-7,8V214.4h42c2.9-.3,6.8.1,8.5-2.8.9-2.8.4-5.8.5-8.7Q348,116.95,348,30.8Zm21.5,18.7V208c-.1,2.4.9,5.4,3.6,5.6,4.3.4,8.6.1,12.9.2V57c0-2.6-.1-6.2-3.1-7.2C378.5,49.2,374,49.6,369.5,49.5Z" transform="translate(-0.1 0)"/><path class="40382624-25ed-44a9-8c60-00b2097851fb" d="M26.7,303.7a77.53,77.53,0,0,1,3.3-7.9c2.4,4.2,3.9,8.9,5.7,13.4,4.9,12.7,9.7,25.5,14.8,38.1,1.3,2.9,2.5,6.1,5,8.1,2.1,1.3,4.7,1.7,7,2.6a90.22,90.22,0,0,1-18,0l1.7-2.1c-2.6-7-5.3-14-7.9-21.1H20.1c-2.2,7-5.3,13.7-6.3,21,1.9.7,3.9,1.4,5.8,2.2-6.5.3-13,.2-19.5.2v-.7c2.2-.7,4.6-.8,6.6-2.1,1.9-1.7,2.7-4.2,3.6-6.4C15.7,334,21.3,318.9,26.7,303.7Zm2.1,5c-2.6,7.6-5.1,15.4-7.6,23.1H36.9C34.2,324,31.6,316.3,28.8,308.7Z" transform="translate(-0.1 0)"/><path class="40382624-25ed-44a9-8c60-00b2097851fb" d="M160.9,304c.3-2.7.3-5.6,1.9-8,8.9,17.1,16.9,34.7,25.6,51.9,6.4-13.8,12.9-27.5,19.3-41.2,1.7-3.6,3.2-7.4,5.5-10.7a22.47,22.47,0,0,1,1.3,5.1l5.1,47.1c.4,2.8.8,6.3,3.5,7.9,2.4.9,5,1.1,7.5,1.9-6,1.2-12.1,0-18.2,0,1.2-3.8.3-7.8,0-11.7-1.1-11.3-2.2-22.6-3.1-33.9-7.4,15.5-14.4,31.3-22.2,46.6-3.1-3.8-4.9-8.4-7.1-12.7-5.6-10.8-10.6-21.9-15.7-33-1.1,12.6-2.2,25.2-3.2,37.8.1,1.7-.6,3.9.9,5.2,1.7.8,3.6,1,5.4,1.6-2.3.9-4.8.6-7.2.6-3.8-.2-7.7.4-11.5-.3,1.8-.7,3.8-1.1,5.6-1.9,1.4-1.7,1.4-4,1.7-6.1C157.5,334.8,159.3,319.4,160.9,304Z" transform="translate(-0.1 0)"/><path class="40382624-25ed-44a9-8c60-00b2097851fb" d="M243.5,351.4c7.1-18.4,13.2-37.1,20.6-55.3a19.2,19.2,0,0,1,2.5,4.4q8.7,22.8,17.5,45.4c1.3,3.2,2.5,6.6,5,9.2,1.9,2,5,2,7.4,3-5.8,1.1-11.7.4-17.6.2,2.1-2.3.3-5-.5-7.4-2-5.2-4-10.5-5.9-15.8-6.1-.1-12.1,0-18.2,0-2.3,6.9-5.4,13.7-6.3,20.9,1.8.7,3.7,1.4,5.5,2.1a29.22,29.22,0,0,1-6.6.3c-4.4-.2-8.9.6-13.3-.4,2.1-.7,4.4-1,6.4-1.9C241.8,355.1,242.7,353.1,243.5,351.4Zm11.9-19.6h15.8c-2.7-7.7-5.3-15.4-8.1-23.1C260.3,316.3,258,324.1,255.4,331.8Z" transform="translate(-0.1 0)"/><path class="40382624-25ed-44a9-8c60-00b2097851fb" d="M325.8,299.7a26.43,26.43,0,0,1,2-3.7c6.1,13.9,11,28.3,16.7,42.4,2.3,5.3,3.7,11.1,7.2,15.9,1.8,2.6,5.2,2.6,7.9,3.5-5.7,1.5-11.8.5-17.6.3,2.5-2,.6-4.7-.2-7-2.1-5.4-4.1-10.8-6.1-16.1-6.1,0-12.1-.1-18.2.1-1.8,7-5.7,13.6-6,20.9,1.5,1,3.4,1.3,5,2-2.8.9-5.7.4-8.6.4-3.6,0-7.3.7-10.8-.5,3.6-.7,7.9-1.4,9.2-5.4C313.1,335,319.2,317.2,325.8,299.7Zm-7.1,32.1h15.8c-2.7-7.7-5.3-15.4-8.2-23C323.6,316.3,321.3,324.1,318.7,331.8Z" transform="translate(-0.1 0)"/><path class="40382624-25ed-44a9-8c60-00b2097851fb" d="M510.1,296.1c4.5,3.4,7.9,7.9,11.7,12q18.15,19.5,36.2,39.1c-.3-13.4-.6-26.8-.8-40.2-.3-2.2.1-5-1.6-6.7-2.3-1.1-4.8-1.4-7.1-2.3,6.5-.5,13,.1,19.5-.3v.7c-1.9,1-5.4,1-5.5,3.8-.6,6.2,0,12.5-.2,18.8-.6,12.8.2,25.7-.4,38.5-4.7-3.1-8.3-7.3-12.1-11.3-12.4-12.5-24.2-25.6-36-38.7.4,13,.8,26,1.1,39,.2,2.4.2,5,1.5,7.1,2.2,1.2,4.7,1.4,7,2.3-6.9.7-13.9.3-20.8.2,2-.9,4.2-1.4,6.2-2.6a18.93,18.93,0,0,0,.9-5.2C510.1,332.4,509.2,314.2,510.1,296.1Z" transform="translate(-0.1 0)"/><path class="40382624-25ed-44a9-8c60-00b2097851fb" d="M72.4,298.6c3.3-1.8,7.1-.5,10.6-.7,3.8.2,7.7-1,11.3.6a55.43,55.43,0,0,0-5.5,1.4c-1.9,1.3-1.6,4-1.8,6,.1,13.4-.2,26.8.1,40.1.4,3.1,0,8,4,8.7a42.6,42.6,0,0,0,13.8,0c3.9-1,4.3-5.6,6.2-8.5.1,3.9.2,8.5-1.9,11.9-7.5,1.4-15.4,0-23.1.1-4.1-.4-8.5,1-12.4-.4,2-1,5.4-.6,5.6-3.5,1.2-7.4.6-14.9.8-22.3-.1-8.7.1-17.4-.1-26-.2-2,.2-4.7-1.9-5.9A43.77,43.77,0,0,0,72.4,298.6Z" transform="translate(-0.1 0)"/><path class="40382624-25ed-44a9-8c60-00b2097851fb" d="M369.6,298.2c5.7-.9,11.5.3,17.3-.3,11.7-.2,24.8-.8,34.6,6.8,11.6,9.1,13.1,26.8,6.3,39.1a28.23,28.23,0,0,1-17.3,13.9c-9.6,2.9-19.6,1.1-29.4.6-3.3-.2-6.7.7-9.9-.4,1.7-1.1,4.9-.6,5.5-3.1a46.78,46.78,0,0,0,.9-9.9V307c-.1-2.2,0-4.5-1.1-6.5C374.3,299.3,371.8,299.1,369.6,298.2Zm14.9,3.4V345c.2,2.8,0,5.8,1.2,8.4,2.8,2.5,6.8,2.5,10.3,2.9,9,.6,19-2.4,24.2-10.1,7.1-12,5.3-29.4-5.7-38.5C406.2,300.9,394.6,299.6,384.5,301.6Z" transform="translate(-0.1 0)"/><path class="40382624-25ed-44a9-8c60-00b2097851fb" d="M448.6,298.6c3.6-1.7,7.6-.5,11.5-.6,7.7-.2,15.4.6,23.1-.7-.9,3.7-.2,7.9-2,11.4-.8-2.2-.3-5.7-3.2-6.5-4.8-1.4-9.8-.7-14.6-.8v23.2c6.2-.5,13.2,1.6,18.6-2.4-.7,4.3-.8,8.6-1.7,12.9-1-2.2-.6-5.8-3.5-6.4-4.4-1-8.9-.7-13.4-.8,0,7.4-.1,14.8,0,22.3-.1,2.2,1.2,4.7,3.7,4.9,4.2.5,8.6.7,12.7-.4,3.4-1.1,3.1-5.3,5.2-7.7,0,3.8-.1,7.9-1.7,11.4-6.6,1.2-13.5.1-20.2.1-4.4-.6-8.8.9-13.1-.4,1.5-.5,3-1,4.5-1.6,1.4-1.4,1.2-3.5,1.5-5.3.6-11.4.2-22.7.3-34.1-.1-5.2.4-10.5-.7-15.7C454.1,298.9,450.9,299.5,448.6,298.6Z" transform="translate(-0.1 0)"/><path class="679bb35f-efcf-4113-95fe-20d61b3793fd" d="M72.8,403.6H87.3c-.8.4-2.4,1.3-3.3,1.8,2.6,7.2,5.4,14.3,8.1,21.5,2.8-7.2,5.8-14.5,8.5-21.8-1.3-.5-2.6-.9-3.8-1.4,8.2-.3,16.3,0,24.5-.3-1.7,1.2-4.4,1.9-3.8,4.5-.1,7.7-.4,15.4.1,23.1-.1,2.7,3.5,2.6,5.1,3.7q-7.5-.15-15,0c1.4-.6,2.8-1.3,4.1-1.9.3-9.2,0-18.6.1-27.9-2.6-.3-6.5-1.5-7.8,1.7-4.9,9.6-8.2,20-13.6,29.3-4.4-9.1-7.8-18.7-11.8-27.9C77.9,405.2,75,404.7,72.8,403.6Z" transform="translate(-0.1 0)"/><path class="679bb35f-efcf-4113-95fe-20d61b3793fd" d="M125.4,404a77.2,77.2,0,0,1,15.2,0c-1.5.4-3.1.8-4.7,1.2-.3,8.8-.4,17.7.1,26.4,2.6.4,5.1.9,7.7.5,2.6,0,3.1-3.1,4.5-4.7-.1,2.4-.4,4.9-.6,7.3-7.2.1-14.3,0-21.5.1,1-.5,2.9-1.3,4-1.8a216.39,216.39,0,0,0,.1-27.9C128.5,404.7,127,404.4,125.4,404Z" transform="translate(-0.1 0)"/><path class="679bb35f-efcf-4113-95fe-20d61b3793fd" d="M150.7,403.6c4.7.1,9.5,0,14.2,0-1.4,1-4.4.9-4.2,3.1-.1,8.1-.6,16.3.3,24.2,1.9,1.9,4.9,1.2,7.3,1.2,2.6,0,3.3-3.1,4.9-4.7-.3,2.3-.4,4.6-.5,7,1.7-1.4,3.5-2.8,4.1-5,3.8-9.1,7-18.4,11.3-27.4,5,9.4,7.8,19.7,12.4,29.2,1.4,3.3,5.4,2.8,8.3,2.3.8-8.8.5-17.8.3-26.6,0-2.3-3.1-2.2-4.6-3.2,4.7,0,9.5,0,14.2.1a27,27,0,0,0-3.8,1.9,99.2,99.2,0,0,0-.3,10.9h15.8c0-3.8,0-7.6-.3-11.3-1.7-.4-3.3-.8-4.9-1.2a77.2,77.2,0,0,1,15.2,0l-4.4,1.2c-.3,9.2-.5,18.4.1,27.8,1.7.5,3.3,1.2,5,1.8-5,.1-10.1,0-15.1.1,1-.5,2.9-1.4,4-1.9a109.13,109.13,0,0,0,.4-14H214.8c0,4.6-.1,9.4.3,14a43.56,43.56,0,0,1,5.1,1.7c-8.7.1-17.4-.1-26.1.1a15.05,15.05,0,0,0,1-1.7c-1.2-2.9-2.3-5.9-3.5-9h-9.5c-1,2.9-2.2,5.9-3.1,8.8.9.4,2.8,1.3,3.7,1.8-10.6.1-21.3-.4-31.9.3,1.4-1.2,4-1.8,3.8-4.1.3-8.3.4-16.8-.1-25.1A14.84,14.84,0,0,0,150.7,403.6Zm36.2,7.9c-1.3,3.3-2.4,6.7-3.7,10h7.4C189.4,418.2,188.1,414.9,186.9,411.5Z" transform="translate(-0.1 0)"/><path class="679bb35f-efcf-4113-95fe-20d61b3793fd" d="M254.6,403.8c6.9-2,15.8-1,20.2,5.1,5.1,7.6,2.9,19.2-5.1,23.8-7.6,4.5-19.2,2.8-23.7-5.3C241,419.3,244.8,406.7,254.6,403.8Zm1.1,2.2c-7.3,3.7-7,14.1-3.7,20.5,2.7,6.3,12.7,8.8,17,2.8,3.2-5,3.2-11.7,1-16.9C268,407,261.2,403.5,255.7,406Z" transform="translate(-0.1 0)"/><path class="679bb35f-efcf-4113-95fe-20d61b3793fd" d="M280.2,403.1a185.79,185.79,0,0,0,26.9.1c-.1,2.4-.1,4.7-.4,7-.6-1.2-1.3-2.4-1.8-3.7-2.9-.4-5.9-.6-8.8-.8,0,9-.3,17.9.3,26.8,1.8.6,3.6,1.2,5.3,1.8-5,0-10-.1-15,.3,1.4-1.2,3.8-1.7,3.8-4,.4-8.3,0-16.7.1-25-4.2.1-9.2-.6-11.8,3.7A47.53,47.53,0,0,0,280.2,403.1Z" transform="translate(-0.1 0)"/><path class="679bb35f-efcf-4113-95fe-20d61b3793fd" d="M309.7,403.7c6.8-.3,13.7.1,20.5-.4q-.45,3.45-.6,6.9c-1-5-5.9-4.1-9.6-4.1v10.8a34.4,34.4,0,0,0,9.6-.9c-.3,2.6-.4,5-.6,7.6-.6-1.4-1.3-2.7-1.9-4.1-2.4-.1-4.7-.1-7-.3,0,4-.3,7.9.3,11.8,3.7,2.4,9.7,1.5,11-3.3-.1,2.3-.4,4.6-.6,6.8-6.9.1-13.8,0-20.8.1,1-.4,3.1-1.3,4.1-1.8a194.1,194.1,0,0,0,.1-27.5A24.11,24.11,0,0,1,309.7,403.7Z" transform="translate(-0.1 0)"/><path class="679bb35f-efcf-4113-95fe-20d61b3793fd" d="M335.3,403.8a77.25,77.25,0,0,1,15.2.1c-1.5.4-3.1.6-4.6,1a181.67,181.67,0,0,0,.1,26.6c2.8.3,5.8.9,8.7.3,1.7-1,2.3-3.1,3.6-4.6-.3,2.4-.6,4.9-.9,7.4-7.2.1-14.3-.1-21.6.3,1-.5,3.1-1.4,4.1-1.9.5-9.1.3-18.3.1-27.5C338.3,404.9,336.8,404.4,335.3,403.8Z" transform="translate(-0.1 0)"/><path class="679bb35f-efcf-4113-95fe-20d61b3793fd" d="M378.4,406.9c3.2-5,10-4.5,15-2.9-.3,2.6-.6,5.1-.9,7.7-1.3-2.6-1.8-6.3-5.4-6.4-4.1-1.2-6.7,4.1-4.6,7.3,3.3,5.6,8.6,10,13.3,14.5.6-2.4,1.3-4.9,1.7-7.3-1.4-.8-2.8-1.5-4.2-2.4,2.8.1,5.6.4,8.6.8a29.44,29.44,0,0,1-4.2,10.6,51.88,51.88,0,0,0,11,6.1c-5,0-10.4.4-14.7-2.7-5.8,4.2-15.9,5.1-20.2-1.5-3.2-5.3.6-11,4.9-14.1C377.7,413.3,376.3,409.9,378.4,406.9Zm3.6,24.5c3.3,2.2,7,.3,10.2-1a139.68,139.68,0,0,1-12-12.3C377,422,377.2,428.7,382,431.4Z" transform="translate(-0.1 0)"/><path class="679bb35f-efcf-4113-95fe-20d61b3793fd" d="M421.1,409.3c1.3-7.2,10.1-7,15.6-5.9-.3,2.6-.3,5-.4,7.6-1.5-2.3-2.4-6-5.8-5.9-3.1-.6-6.3,2.2-5,5.4,2.2,3.8,6.5,5.5,9.2,8.8,3.7,3.7,3.7,11-.9,14.1-4.1,2.8-9.5,2-14,.6.1-2.9.3-5.8.5-8.7,1.4,2.6,1.8,6.4,5,7.3,4,1.9,9.4-2.8,6.8-6.9C428.7,420.4,419.7,417.4,421.1,409.3Z" transform="translate(-0.1 0)"/><path class="679bb35f-efcf-4113-95fe-20d61b3793fd" d="M442,403.7c6.1,0,12.4-.8,18.4.4,6.3,1.5,6.4,10.2,2.2,14-2.4,2.6-6.1,2.8-9.5,2.8,3.1-1.7,7.6-3.3,7.2-7.8.6-4.7-3.7-7.8-7.9-8.1-.1,9.2-.4,18.4.3,27.5,1.7.6,3.3,1.3,5,1.9-4.9.1-9.7,0-14.6.1,1.3-.8,2.4-1.4,3.7-2.2.5-9,.9-18.1,0-27A22.54,22.54,0,0,1,442,403.7Z" transform="translate(-0.1 0)"/><path class="679bb35f-efcf-4113-95fe-20d61b3793fd" d="M479,401.9c4.9,9.2,7.7,19.5,12.3,28.9,1,2.2,3.6,2.8,5.5,4.1-3.7-.1-7.4-.3-11.1-.1.3-3.8-1.7-7.2-2.9-10.6h-9.5c-1.2,2.9-2.2,5.9-3.1,8.8,1,.5,2.9,1.4,4,1.8a102.69,102.69,0,0,0-12.4.3c1.9-1.3,4.7-2,5.5-4.6C471.4,421,474.5,411.1,479,401.9Zm-.9,9.6c-1.3,3.3-2.6,6.7-3.8,10h7.4C480.5,418.2,479.3,414.9,478.1,411.5Z" transform="translate(-0.1 0)"/></svg>