<svg xmlns="http://www.w3.org/2000/svg" width="128" height="128" viewBox="0 0 128 128">
  <title>COMEDY</title>
  <g>
    <g>
      <path d="M71.987,57.391c0-2.856-10.7-5.172-23.89-5.172s-23.89,2.316-23.89,5.172c0,0-1.258,33.207,23.89,46.41C73.244,90.6,71.987,57.391,71.987,57.391Z" fill="#e9f1f8"/>
      <g>
        <path d="M42.085,72.038a1.75,1.75,0,0,1-1.75-1.75,2.454,2.454,0,1,0-4.907,0,1.75,1.75,0,0,1-3.5,0,5.954,5.954,0,1,1,11.907,0A1.75,1.75,0,0,1,42.085,72.038Z" fill="#455e9f"/>
        <path d="M62.516,72.038a1.75,1.75,0,0,1-1.75-1.75,2.454,2.454,0,0,0-4.908,0,1.75,1.75,0,0,1-3.5,0,5.954,5.954,0,0,1,11.908,0A1.751,1.751,0,0,1,62.516,72.038Z" fill="#455e9f"/>
      </g>
      <path d="M48.1,88.305a9.245,9.245,0,0,1-9.235-9.234,1.75,1.75,0,0,1,3.5,0,5.735,5.735,0,0,0,11.469,0,1.75,1.75,0,0,1,3.5,0A9.245,9.245,0,0,1,48.1,88.305Z" fill="#455e9f"/>
    </g>
    <g>
      <path d="M78.423,47.854a1.75,1.75,0,1,0-2.354,2.59,19.537,19.537,0,0,1,6.394,14.435,1.75,1.75,0,0,0,3.5,0A23.042,23.042,0,0,0,78.423,47.854Z" fill="#001c5b"/>
      <path d="M70.558,46.918a1.724,1.724,0,0,0,.68.139,1.75,1.75,0,0,0,.683-3.362,22.854,22.854,0,0,0-8.95-1.807,1.75,1.75,0,0,0,0,3.5A19.383,19.383,0,0,1,70.558,46.918Z" fill="#001c5b"/>
      <path d="M62.971,31.681a1.75,1.75,0,1,0,0,3.5,29.732,29.732,0,0,1,29.7,29.7,1.75,1.75,0,0,0,3.5,0A33.237,33.237,0,0,0,62.971,31.681Z" fill="#001c5b"/>
      <path d="M102.614,49.312a1.75,1.75,0,0,0-3.258,1.28,38.863,38.863,0,0,1,2.7,14.287,1.75,1.75,0,0,0,3.5,0A42.389,42.389,0,0,0,102.614,49.312Z" fill="#001c5b"/>
      <path d="M99.853,43.587l-.325-.552a1.75,1.75,0,1,0-3.007,1.79l.3.516a1.751,1.751,0,0,0,3.03-1.754Z" fill="#001c5b"/>
      <path d="M62.971,25.8A39.049,39.049,0,0,1,92.692,39.5a1.75,1.75,0,0,0,2.661-2.274A42.548,42.548,0,0,0,62.971,22.3a1.75,1.75,0,0,0,0,3.5Z" fill="#001c5b"/>
      <path d="M39.911,54.281q.069,0,.138-.006l.708-.052a1.75,1.75,0,0,0-.246-3.492l-.734.055a1.75,1.75,0,0,0,.134,3.495Z" fill="#001c5b"/>
      <path d="M48.1,50.469q-.864,0-1.711.013a1.75,1.75,0,1,0,.052,3.5q.822-.012,1.659-.013c13.076,0,21.123,2.263,22.143,3.584.036,1.784.221,27.284-17.212,40.983a1.75,1.75,0,1,0,2.162,2.752c19.4-15.246,18.589-42.8,18.546-43.9C73.739,50.664,50.724,50.469,48.1,50.469Z" fill="#001c5b"/>
      <path d="M48.913,102.251c-22.982-12.065-23-42.167-22.957-44.694.388-.457,2.4-1.642,8.009-2.563A1.75,1.75,0,0,0,33.4,51.54c-7.36,1.208-10.938,3.122-10.937,5.785a66.358,66.358,0,0,0,2.58,18.8c3.836,13.493,11.528,23.6,22.245,29.226a1.75,1.75,0,0,0,1.627-3.1Z" fill="#001c5b"/>
      <path d="M31.931,70.288a1.75,1.75,0,0,0,3.5,0,2.454,2.454,0,1,1,4.907,0,1.75,1.75,0,0,0,3.5,0,5.954,5.954,0,1,0-11.907,0Z" fill="#001c5b"/>
      <path d="M55.861,70.288a2.454,2.454,0,1,1,4.908,0,1.75,1.75,0,0,0,3.5,0,5.954,5.954,0,1,0-11.908,0,1.75,1.75,0,0,0,3.5,0Z" fill="#001c5b"/>
      <path d="M48.1,84.805a5.74,5.74,0,0,1-5.735-5.734,1.75,1.75,0,0,0-3.5,0,9.235,9.235,0,0,0,18.469,0,1.75,1.75,0,0,0-3.5,0A5.74,5.74,0,0,1,48.1,84.805Z" fill="#001c5b"/>
    </g>
  </g>
</svg>
