<svg xmlns="http://www.w3.org/2000/svg" xmlns:xlink="http://www.w3.org/1999/xlink" id="Layer_1" x="0" y="0" version="1.1" viewBox="0 0 500 500" style="enable-background:new 0 0 500 500" xml:space="preserve"><style type="text/css">.st0{fill:#aab1ba}.st1{fill:#fddf7f}.st2{fill:#ecf4f7}.st3{fill:#83e1e5}.st4{fill:#1c1d21}</style><g><path d="M161.382,60.695H65.42c-17.99,0-32.573,14.583-32.573,32.573v350.108l128.534-210.803V60.695z" class="st0"/></g><g><path d="M434.58,60.695h-95.962v171.878l128.534,210.803V93.268C467.152,75.279,452.569,60.695,434.58,60.695z" class="st0"/></g><g><path d="M338.618,232.573H161.382L32.848,443.376v19.051c0,17.99,14.583,32.573,32.573,32.573H434.58 c17.989,0,32.573-14.583,32.573-32.573v-19.051L338.618,232.573z" class="st1"/></g><g><path d="M434.134,389.224V264.079c5.489-3.061,9.207-8.918,9.207-15.65c0-9.894-8.021-17.915-17.915-17.915 s-17.915,8.021-17.915,17.915c0,6.731,3.717,12.589,9.207,15.65v96.581l-26.617-43.653v-96.961 c5.489-3.062,9.207-8.918,9.207-15.65c0-9.894-8.021-17.915-17.915-17.915s-17.915,8.021-17.915,17.915 c0,6.731,3.717,12.589,9.207,15.65v68.398l-34.067-55.871H300.34l154.197,255.588c7.673-5.959,12.616-15.267,12.616-25.734v-19.051 L434.134,389.224z" class="st2"/></g><g><path d="M161.382,232.573l-34.067,55.871v-68.398c5.489-3.061,9.207-8.918,9.207-15.65 c0-9.894-8.021-17.915-17.915-17.915c-9.894,0-17.915,8.021-17.915,17.915c0,6.731,3.717,12.588,9.207,15.65v96.961L83.283,360.66 v-96.581c5.489-3.061,9.207-8.918,9.207-15.65c0-9.894-8.021-17.915-17.915-17.915s-17.915,8.021-17.915,17.915 c0,6.731,3.717,12.589,9.207,15.65v125.145l-33.019,54.152v19.051c0,10.467,4.943,19.775,12.616,25.734L199.66,232.573H161.382z" class="st2"/></g><g><path d="M317.516,5H182.485c-11.655,0-21.102,9.448-21.102,21.103v206.471h177.236V26.103 C338.618,14.448,329.17,5,317.516,5z" class="st2"/></g><g><path d="M184.375,141.864l-1.365-1.366c10.492-10.491,16.386-24.721,16.386-39.558V5h-16.911 c-11.655,0-21.102,9.448-21.102,21.103v206.471h39.379v-51.151C200.761,166.585,194.867,152.355,184.375,141.864z" class="st1"/></g><g><path d="M317.516,5h-16.911v95.94c0,14.837,5.894,29.067,16.386,39.558l-1.365,1.366 c-10.492,10.492-16.386,24.721-16.386,39.558v51.151h39.379V26.103C338.618,14.448,329.17,5,317.516,5z" class="st1"/></g><g><path d="M248.735,161.564l-14.58,7.665c-1.994,1.048-4.324-0.645-3.944-2.865l2.784-16.235 c0.151-0.882-0.141-1.781-0.782-2.406l-11.795-11.497c-1.613-1.572-0.723-4.312,1.506-4.636l16.3-2.369 c0.885-0.129,1.651-0.685,2.046-1.487l7.29-14.771c0.997-2.02,3.878-2.02,4.875,0l7.29,14.771c0.396,0.802,1.161,1.358,2.046,1.487 l16.3,2.369c2.229,0.324,3.119,3.064,1.506,4.636l-11.795,11.497c-0.641,0.624-0.933,1.524-0.782,2.406l2.784,16.235 c0.381,2.22-1.95,3.914-3.944,2.865l-14.58-7.665C250.473,161.148,249.527,161.148,248.735,161.564z" class="st3"/></g><path d="M54.461,463.568l136.343-225.995H164.19L57.685,412.246c-0.942,1.545-2.588,2.398-4.274,2.398	c-0.887,0-1.785-0.236-2.598-0.732c-2.357-1.438-3.104-4.514-1.666-6.871l11.72-19.221V279.848c0-2.762,2.239-5,5-5s5,2.238,5,5	v91.571l7.417-12.163v-79.408c0-2.762,2.239-5,5-5s5,2.238,5,5v63.008l16.617-27.252v-81.03c0-2.762,2.239-5,5-5s5,2.238,5,5v64.63	l7.416-12.163v-52.467c0-2.762,2.239-5,5-5s5,2.238,5,5v36.067l24.798-40.669c0.908-1.489,2.525-2.397,4.269-2.397h58.109	c2.761,0,5,2.238,5,5s-2.239,5-5,5h-17.008L63.023,468.734c-0.939,1.557-2.592,2.418-4.286,2.418c-0.879,0-1.77-0.232-2.578-0.72	C53.795,469.006,53.035,465.933,54.461,463.568z M108.486,21.534h6.534v6.535c0,2.762,2.239,5,5,5s5-2.238,5-5v-6.535h6.535	c2.761,0,5-2.238,5-5s-2.239-5-5-5h-6.535V5c0-2.762-2.239-5-5-5s-5,2.238-5,5v6.534h-6.534c-2.761,0-5,2.238-5,5	S105.725,21.534,108.486,21.534z M368.445,21.534h6.535v6.535c0,2.762,2.239,5,5,5s5-2.238,5-5v-6.535h6.534c2.761,0,5-2.238,5-5	s-2.239-5-5-5h-6.534V5c0-2.762-2.239-5-5-5s-5,2.238-5,5v6.534h-6.535c-2.761,0-5,2.238-5,5S365.684,21.534,368.445,21.534z M434.58,55.695h-76.492c-2.761,0-5,2.238-5,5s2.239,5,5,5h76.492c15.204,0,27.573,12.369,27.573,27.572v369.159	c0,15.204-12.369,27.573-27.573,27.573H65.42c-15.204,0-27.573-12.369-27.573-27.573V93.268c0-15.203,12.369-27.572,27.573-27.572	h77.703c2.761,0,5-2.238,5-5s-2.239-5-5-5H65.42c-20.718,0-37.573,16.854-37.573,37.572v369.159	C27.848,483.145,44.703,500,65.42,500H434.58c20.718,0,37.573-16.855,37.573-37.573V93.268	C472.152,72.55,455.297,55.695,434.58,55.695z M238.025,227.573c-2.761,0-5,2.238-5,5s2.239,5,5,5h5.112c2.761,0,5-2.238,5-5	s-2.239-5-5-5H238.025z M338.618,227.573h-78.226c-2.761,0-5,2.238-5,5s2.239,5,5,5h37.124l139.46,231.161	c0.939,1.557,2.592,2.418,4.286,2.418c0.879,0,1.77-0.232,2.578-0.72c2.364-1.427,3.125-4.5,1.698-6.864L309.196,237.573h26.615	l33.354,54.701l16.667,27.336c0,0.001,0.001,0.002,0.002,0.002l26.614,43.649c0,0,0,0,0,0.001l6.721,11.023l23.146,37.96	c0.942,1.545,2.588,2.398,4.274,2.398c0.887,0,1.785-0.236,2.598-0.732c2.358-1.438,3.104-4.514,1.666-6.871l-11.72-19.221V279.848	c0-2.762-2.239-5-5-5s-5,2.238-5,5v91.571l-7.417-12.163v-79.408c0-2.762-2.239-5-5-5s-5,2.238-5,5v63.008l-16.617-27.252v-81.03	c0-2.762-2.239-5-5-5s-5,2.238-5,5v64.629l-5.149-8.444l-2.267-3.718v-52.467c0-2.762-2.239-5-5-5s-5,2.238-5,5v36.066	l-24.797-40.669C341.979,228.481,340.362,227.573,338.618,227.573z M161.382,221.976c2.761,0,5-2.238,5-5v-71.478h14.551	c9.561,9.611,14.827,22.362,14.827,35.924v35.554c0,2.762,2.239,5,5,5s5-2.238,5-5v-35.554c0-15.318-5.613-29.772-15.865-41.015	c9.385-11.008,14.5-24.844,14.5-39.467V21.618c0-2.762-2.239-5-5-5s-5,2.238-5,5v79.322c0,12.931-4.794,25.12-13.526,34.558h-14.487	V26.103c0-8.879,7.223-16.103,16.102-16.103h135.031c8.879,0,16.103,7.224,16.103,16.103v109.396h-14.488	c-8.733-9.438-13.526-21.627-13.526-34.558V21.618c0-2.762-2.239-5-5-5s-5,2.238-5,5v79.322c0,14.623,5.115,28.46,14.5,39.467	c-10.253,11.243-15.865,25.697-15.865,41.015v35.554c0,2.762,2.239,5,5,5s5-2.238,5-5v-35.554c0-13.562,5.266-26.313,14.827-35.924	h14.552v71.478c0,2.762,2.239,5,5,5s5-2.238,5-5V26.103C343.618,11.71,331.909,0,317.516,0H182.484	c-14.393,0-26.102,11.71-26.102,26.103v190.873C156.382,219.737,158.621,221.976,161.382,221.976z M95.693,204.396	c0-12.636,10.279-22.915,22.915-22.915s22.915,10.279,22.915,22.915s-10.279,22.915-22.915,22.915S95.693,217.032,95.693,204.396z M105.693,204.396c0,7.121,5.793,12.915,12.915,12.915s12.915-5.794,12.915-12.915s-5.793-12.915-12.915-12.915	S105.693,197.275,105.693,204.396z M97.489,248.43c0,12.635-10.279,22.914-22.915,22.914S51.66,261.064,51.66,248.43	c0-12.636,10.28-22.915,22.915-22.915S97.489,235.794,97.489,248.43z M87.489,248.43c0-7.121-5.793-12.915-12.915-12.915	c-7.122,0-12.915,5.794-12.915,12.915s5.793,12.914,12.915,12.914C81.696,261.344,87.489,255.551,87.489,248.43z M404.307,204.396	c0,12.636-10.279,22.915-22.915,22.915s-22.915-10.279-22.915-22.915s10.279-22.915,22.915-22.915S404.307,191.761,404.307,204.396z M394.307,204.396c0-7.121-5.793-12.915-12.915-12.915s-12.915,5.794-12.915,12.915s5.793,12.915,12.915,12.915	S394.307,211.518,394.307,204.396z M402.511,248.43c0-12.636,10.279-22.915,22.915-22.915s22.915,10.279,22.915,22.915	c0,12.635-10.28,22.914-22.915,22.914S402.511,261.064,402.511,248.43z M412.511,248.43c0,7.121,5.793,12.914,12.915,12.914	c7.122,0,12.915-5.793,12.915-12.914s-5.793-12.915-12.915-12.915C418.304,235.515,412.511,241.309,412.511,248.43z M250,166.549	l-13.518,7.106c-2.621,1.376-5.735,1.151-8.129-0.589c-2.394-1.739-3.57-4.632-3.07-7.548l2.582-15.052l-10.936-10.66	c-2.119-2.064-2.867-5.097-1.953-7.911s3.302-4.828,6.23-5.254l15.114-2.195l6.758-13.695c1.311-2.653,3.962-4.302,6.921-4.302	s5.611,1.648,6.921,4.301l6.759,13.696l15.113,2.195c2.929,0.426,5.317,2.439,6.231,5.254s0.166,5.847-1.954,7.912l-10.936,10.659	l2.582,15.052c0.5,2.916-0.676,5.809-3.07,7.548c-1.353,0.983-2.937,1.483-4.53,1.483c-1.227,0-2.458-0.296-3.598-0.895L250,166.549	z M246.409,157.139c1.124-0.591,2.357-0.887,3.591-0.887s2.467,0.296,3.591,0.887l10.487,5.514l-2.003-11.677	c-0.429-2.508,0.402-5.062,2.221-6.834l8.483-8.269l-11.725-1.703c-2.515-0.366-4.686-1.944-5.811-4.221L250,119.323l-5.243,10.625	c-1.125,2.277-3.297,3.855-5.81,4.222l-11.727,1.703l8.484,8.271c1.819,1.771,2.649,4.326,2.219,6.832l-2.002,11.677	L246.409,157.139L246.409,157.139z" class="st4"/></svg>