<svg xmlns="http://www.w3.org/2000/svg" xmlns:xlink="http://www.w3.org/1999/xlink" width="2048" height="2048" xml:space="preserve" style="shape-rendering:geometricPrecision;text-rendering:geometricPrecision;image-rendering:optimizeQuality;fill-rule:evenodd;clip-rule:evenodd" viewBox="0 0 2048 2048"><defs><style type="text/css">.fil2{fill:none}.fil1{fill:#29b6f6}.fil0{fill:#81d4fa}.fil11{fill:#e0e0e0}.fil10,.fil7{fill:#37474f;fill-rule:nonzero}.fil7{fill:#424242}.fil5{fill:#d84315}.fil5,.fil8,.fil9{fill-rule:nonzero}.fil8{fill:#dfb28b}.fil9{fill:#e0e0e0}.fil3{fill-rule:nonzero}.fil4{fill:#e64a19}.fil4,.fil6{fill-rule:nonzero}.fil3{fill:#ff8f00}.fil6{fill:#ffa000}</style><clipPath id="id0"><path d="M1024 -0.0011811c565.541,0 1024,458.461 1024,1024 0,565.541 -458.461,1024 -1024,1024 -565.541,0 -1024,-458.461 -1024,-1024 0,-565.541 458.461,-1024 1024,-1024z"/></clipPath></defs><g id="Layer_x0020_1"><metadata id="CorelCorpID_0Corel-Layer"/><path d="M1024 -0.0011811c565.541,0 1024,458.461 1024,1024 0,565.541 -458.461,1024 -1024,1024 -565.541,0 -1024,-458.461 -1024,-1024 0,-565.541 458.461,-1024 1024,-1024z" class="fil0"/><g style="clip-path:url(#id0)"><g id="_517130776"><g><polygon id="_4899794161" points="1117.54 645.315 2253.42 1781.2 2254.52 1782.43 2255.59 1783.7 2256.63 1784.99 2257.64 1786.31 2258.62 1787.64 2259.56 1789.01 2260.47 1790.4 2261.36 1791.81 2262.2 1793.24 2263.02 1794.7 2263.79 1796.17 2264.54 1797.67 2265.25 1799.19 2265.92 1800.72 2266.56 1802.28 2267.16 1803.86 2267.72 1805.45 2268.24 1807.06 2268.72 1808.69 2269.17 1810.33 2269.57 1811.99 2269.94 1813.67 2270.26 1815.36 2270.55 1817.07 2270.79 1818.79 2270.99 1820.52 2271.14 1822.26 2271.25 1824.02 2271.32 1825.79 2271.34 1827.57 1135.46 691.687 1135.44 689.907 1135.37 688.138 1135.26 686.38 1135.1 684.636 1134.91 682.903 1134.67 681.185 1134.38 679.479 1134.06 677.788 1133.69 676.112 1133.29 674.451 1132.84 672.807 1132.36 671.178 1131.84 669.567 1131.27 667.974 1130.68 666.399 1130.04 664.842 1129.37 663.304 1128.66 661.788 1127.91 660.29 1127.14 658.813 1126.32 657.358 1125.47 655.925 1124.59 654.514 1123.68 653.126 1122.73 651.762 1121.76 650.423 1120.75 649.107 1119.71 647.817 1118.64 646.552" class="fil1"/><polygon id="_489979800" points="1135.46 691.687 2271.34 1827.57 2271.3 1829.91 2271.19 1832.23 2271 1834.53 2270.73 1836.8 2270.39 1839.06 2269.98 1841.28 2269.49 1843.49 2268.94 1845.66 2268.32 1847.81 2267.63 1849.93 2266.88 1852.02 2266.06 1854.08 2265.18 1856.1 2264.24 1858.09 2263.23 1860.05 2262.17 1861.96 1126.29 726.081 1127.35 724.163 1128.36 722.209 1129.3 720.219 1130.18 718.196 1131 716.138 1131.75 714.05 1132.44 711.931 1133.06 709.782 1133.61 707.606 1134.1 705.402 1134.51 703.173 1134.85 700.92 1135.11 698.644 1135.31 696.345 1135.42 694.026" class="fil1"/><polygon id="_489980256" points="1401.28 869.761 2537.16 2005.64 2543.97 2013.26 2550.61 2021.03 2557.07 2028.94 2563.36 2037.01 2569.46 2045.21 2575.39 2053.56 2581.13 2062.05 2586.68 2070.67 2592.04 2079.43 2597.21 2088.31 2602.18 2097.32 2606.95 2106.45 2611.52 2115.71 2615.88 2125.08 2620.04 2134.56 2623.98 2144.16 2627.71 2153.86 2631.22 2163.67 2634.51 2173.59 2637.57 2183.6 2640.41 2193.71 2643.03 2203.91 2645.4 2214.21 2647.55 2224.59 2649.45 2235.06 2651.12 2245.61 2652.54 2256.24 2653.71 2266.94 2654.63 2277.72 2655.31 2288.57 1519.42 1152.68 1518.75 1141.84 1517.83 1131.06 1516.66 1120.35 1515.24 1109.72 1513.57 1099.17 1511.67 1088.71 1509.52 1078.32 1507.14 1068.03 1504.53 1057.83 1501.69 1047.72 1498.63 1037.7 1495.34 1027.79 1491.83 1017.98 1488.1 1008.28 1484.16 998.68 1480 989.194 1475.64 979.823 1471.07 970.57 1466.3 961.438 1461.33 952.429 1456.16 943.544 1450.8 934.791 1445.25 926.169 1439.51 917.682 1433.58 909.333 1427.47 901.125 1421.19 893.061 1414.72 885.144 1408.09 877.375" class="fil1"/><polygon id="_489980280" points="1561.01 1198.67 2696.89 2334.55 2633.12 2334.55 1497.24 1198.67" class="fil1"/><polygon id="_489981336" points="1497.24 1198.67 2633.12 2334.55 2633.09 2334.55 2633.06 2334.55 2633.03 2334.55 2633.01 2334.55 2632.98 2334.55 2632.95 2334.55 2632.92 2334.55 2632.89 2334.55 1497.01 1198.67 1497.04 1198.67 1497.07 1198.67 1497.1 1198.67 1497.13 1198.67 1497.15 1198.67 1497.18 1198.67 1497.21 1198.67" class="fil1"/><polygon id="_489980880" points="1497.01 1198.67 2632.89 2334.55 2372.71 2334.55 1236.83 1198.67" class="fil1"/><polygon id="_489981312" points="1270.24 1211.75 2406.13 2347.63 2407.52 2349.26 1271.64 1213.38" class="fil1"/><polygon id="_489980856" points="1271.64 1213.38 2407.52 2349.26 2409.12 2351.37 2410.55 2353.46 2411.82 2355.53 2412.93 2357.59 2413.88 2359.64 2414.67 2361.67 2415.31 2363.68 2415.8 2365.68 2416.13 2367.67 2416.33 2369.64 2416.37 2371.59 2416.28 2373.53 2416.05 2375.46 2415.68 2377.37 2415.18 2379.26 2414.54 2381.14 1278.66 1245.26 1279.3 1243.38 1279.8 1241.48 1280.17 1239.57 1280.4 1237.65 1280.49 1235.71 1280.45 1233.76 1280.25 1231.79 1279.92 1229.8 1279.43 1227.8 1278.79 1225.79 1278 1223.76 1277.05 1221.71 1275.94 1219.65 1274.67 1217.57 1273.24 1215.48" class="fil1"/><polygon id="_489980976" points="1203.32 1297.37 2339.2 2433.25 2331.27 2436.21 2323.13 2439.09 2314.81 2441.9 2306.33 2444.63 2297.72 2447.28 2289.01 2449.84 2280.22 2452.33 2271.39 2454.74 2262.53 2457.08 2253.67 2459.32 2244.84 2461.49 2236.07 2463.58 2227.38 2465.59 2218.8 2467.52 2210.35 2469.36 2202.07 2471.12 2193.98 2472.81 2186.1 2474.4 2178.46 2475.92 2171.09 2477.35 2164.02 2478.7 2157.26 2479.97 2150.85 2481.15 2144.82 2482.25 2139.19 2483.27 2133.98 2484.2 2129.23 2485.04 2124.96 2485.8 2121.2 2486.48 2117.97 2487.07 2115.29 2487.58 2113.21 2487.99 977.325 1352.11 979.411 1351.69 982.084 1351.19 985.315 1350.6 989.081 1349.92 993.352 1349.16 998.103 1348.32 1003.31 1347.38 1008.94 1346.37 1014.97 1345.27 1021.38 1344.09 1028.13 1342.82 1035.21 1341.47 1042.58 1340.04 1050.22 1338.52 1058.09 1336.92 1066.19 1335.24 1074.47 1333.48 1082.92 1331.63 1091.5 1329.71 1100.19 1327.7 1108.96 1325.61 1117.79 1323.44 1126.64 1321.19 1135.5 1318.86 1144.34 1316.45 1153.13 1313.96 1161.84 1311.39 1170.45 1308.75 1178.93 1306.02 1187.25 1303.21 1195.39 1300.33" class="fil1"/><polygon id="_489980736" points="1283.09 1246.94 2418.97 2382.82 2418.29 2384.75 2417.47 2386.65 2416.5 2388.53 2415.39 2390.39 2414.15 2392.22 2412.77 2394.03 2411.26 2395.83 2409.62 2397.59 2407.86 2399.34 2405.97 2401.06 2403.97 2402.77 2401.85 2404.45 2399.61 2406.11 2397.27 2407.74 2394.81 2409.36 2392.26 2410.95 2389.6 2412.53 2386.84 2414.08 2383.98 2415.61 2381.04 2417.12 2378 2418.61 2374.88 2420.08 2371.67 2421.53 2368.38 2422.95 2365.01 2424.36 2361.56 2425.74 2358.05 2427.11 2354.46 2428.45 2350.81 2429.78 2347.09 2431.08 2343.31 2432.37 2339.48 2433.64 1203.6 1297.75 1207.43 1296.49 1211.21 1295.2 1214.93 1293.9 1218.58 1292.57 1222.17 1291.23 1225.68 1289.86 1229.13 1288.48 1232.5 1287.07 1235.78 1285.64 1238.99 1284.19 1242.12 1282.73 1245.16 1281.24 1248.1 1279.73 1250.96 1278.2 1253.72 1276.65 1256.38 1275.07 1258.93 1273.48 1261.39 1271.86 1263.73 1270.22 1265.97 1268.57 1268.09 1266.88 1270.09 1265.18 1271.98 1263.46 1273.74 1261.71 1275.38 1259.94 1276.89 1258.15 1278.27 1256.34 1279.51 1254.5 1280.62 1252.65 1281.59 1250.77 1282.41 1248.86" class="fil1"/><polygon id="_489980784" points="977.325 1352.11 2113.21 2487.99 2107.8 2489.14 2102.75 2490.21 2098.02 2491.22 2093.59 2492.16 2089.44 2493.03 2085.52 2493.84 2081.83 2494.58 2078.34 2495.25 2075 2495.86 2071.81 2496.4 2068.74 2496.87 2065.75 2497.28 2062.83 2497.62 2059.94 2497.89 2057.07 2498.1 2054.17 2498.24 2051.24 2498.32 2048.24 2498.33 2045.14 2498.27 2041.92 2498.15 2038.55 2497.96 2035.01 2497.7 2031.28 2497.38 2027.31 2496.99 2023.1 2496.54 2018.6 2496.02 2013.81 2495.44 2008.68 2494.79 2003.19 2494.08 1997.32 2493.29 1991.05 2492.45 1984.34 2491.54 848.455 1355.66 855.167 1356.57 861.444 1357.41 867.311 1358.19 872.796 1358.91 877.925 1359.56 882.722 1360.14 887.216 1360.66 891.432 1361.11 895.396 1361.5 899.134 1361.82 902.672 1362.08 906.038 1362.26 909.257 1362.39 912.355 1362.45 915.359 1362.44 918.294 1362.36 921.186 1362.22 924.063 1362.01 926.95 1361.74 929.873 1361.4 932.859 1360.99 935.933 1360.52 939.124 1359.98 942.454 1359.37 945.952 1358.7 949.644 1357.96 953.555 1357.15 957.712 1356.28 962.142 1355.34 966.87 1354.33 971.922 1353.25" class="fil1"/><polygon id="_489980952" points="529.698 1154.22 1665.58 2290.1 1666.73 2291.26 1667.57 2292.72 1668.09 2294.53 1668.27 2296.71 532.385 1160.83 532.209 1158.65 531.69 1156.84 530.847 1155.37" class="fil1"/><polygon id="_489981024" points="679.835 1327.72 1815.72 2463.6 1813.84 2463.25 1811.98 2462.92 1810.12 2462.6 1808.26 2462.3 1806.41 2462.01 1804.57 2461.74 1802.73 2461.49 1800.89 2461.25 1799.07 2461.03 1797.24 2460.82 1795.43 2460.63 1793.61 2460.46 1791.81 2460.3 1790 2460.16 1788.21 2460.03 1786.41 2459.93 1784.63 2459.84 1782.84 2459.76 1781.06 2459.7 1779.29 2459.66 1777.52 2459.64 1775.75 2459.63 1773.99 2459.64 1772.23 2459.67 1770.48 2459.72 1768.73 2459.78 1766.99 2459.86 1765.25 2459.96 1763.51 2460.08 1761.78 2460.21 1760.05 2460.36 1758.32 2460.53 622.441 1324.65 624.167 1324.48 625.896 1324.33 627.63 1324.19 629.367 1324.08 631.107 1323.98 632.853 1323.9 634.601 1323.83 636.354 1323.79 638.111 1323.76 639.872 1323.75 641.638 1323.76 643.407 1323.78 645.182 1323.82 646.961 1323.88 648.745 1323.95 650.532 1324.04 652.325 1324.15 654.122 1324.28 655.925 1324.42 657.733 1324.58 659.545 1324.75 661.362 1324.94 663.185 1325.15 665.013 1325.37 666.846 1325.61 668.685 1325.86 670.529 1326.13 672.38 1326.42 674.234 1326.72 676.095 1327.04 677.963 1327.37" class="fil1"/><polygon id="_489981120" points="622.441 1324.65 1758.32 2460.53 1756.66 2460.71 1755.01 2460.91 1753.35 2461.12 1751.7 2461.35 1750.05 2461.6 1748.4 2461.87 1746.75 2462.16 1745.11 2462.46 1743.46 2462.78 1741.82 2463.11 1740.18 2463.47 1738.54 2463.84 1736.9 2464.23 1735.26 2464.64 1733.62 2465.07 1731.98 2465.51 1730.35 2465.97 1728.71 2466.45 1727.08 2466.95 1725.44 2467.47 1723.81 2468.01 1722.17 2468.56 1720.54 2469.14 1718.91 2469.73 1717.27 2470.34 1715.64 2470.97 1714.01 2471.62 1712.38 2472.29 1710.74 2472.98 1709.11 2473.69 1707.48 2474.41 1705.85 2475.16 569.964 1339.28 571.597 1338.53 573.23 1337.8 574.863 1337.1 576.495 1336.41 578.128 1335.74 579.761 1335.09 581.393 1334.46 583.026 1333.85 584.659 1333.26 586.293 1332.68 587.926 1332.13 589.56 1331.59 591.194 1331.07 592.83 1330.57 594.465 1330.09 596.102 1329.63 597.739 1329.18 599.377 1328.76 601.016 1328.35 602.656 1327.96 604.297 1327.58 605.939 1327.23 607.583 1326.89 609.227 1326.57 610.874 1326.27 612.521 1325.99 614.17 1325.72 615.821 1325.47 617.474 1325.24 619.127 1325.03 620.783 1324.83" class="fil1"/><polygon id="_489981792" points="569.964 1339.28 1705.85 2475.16 1704.79 2475.69 1703.48 2476.26 1701.93 2476.86 1700.17 2477.48 1698.2 2478.13 1696.05 2478.79 1693.73 2479.46 1691.27 2480.14 1688.67 2480.82 1685.96 2481.49 1683.15 2482.15 1680.27 2482.8 1677.32 2483.43 1674.32 2484.04 1671.3 2484.62 1668.27 2485.16 532.385 1349.28 535.418 1348.73 538.44 1348.16 541.435 1347.55 544.385 1346.92 547.272 1346.27 550.08 1345.61 552.792 1344.93 555.388 1344.26 557.853 1343.58 560.169 1342.91 562.319 1342.25 564.284 1341.6 566.05 1340.98 567.596 1340.38 568.907 1339.81" class="fil1"/><polygon id="_489981984" points="532.385 1349.28 1668.27 2485.16 1668.27 2551.29 532.385 1415.41" class="fil1"/><polygon id="_489981936" points="532.385 1415.41 1668.27 2551.29 1668.09 2553.49 1667.57 2555.35 1666.73 2556.89 1665.58 2558.14 1664.14 2559.13 1662.43 2559.88 1660.46 2560.44 1658.25 2560.81 1655.82 2561.04 1653.19 2561.15 1650.37 2561.16 1647.38 2561.11 1644.24 2561.02 1640.96 2560.92 1637.57 2560.85 1634.07 2560.81 498.192 1424.93 501.688 1424.96 505.082 1425.04 508.36 1425.14 511.5 1425.23 514.49 1425.28 517.309 1425.27 519.942 1425.16 522.369 1424.93 524.576 1424.56 526.545 1424 528.258 1423.24 529.698 1422.26 530.847 1421 531.69 1419.47 532.209 1417.61" class="fil1"/><polygon id="_489981456" points="498.192 1424.93 1634.07 2560.81 1630.58 2560.85 1627.18 2560.92 1623.9 2561.02 1620.76 2561.11 1617.77 2561.16 1614.96 2561.15 1612.32 2561.04 1609.89 2560.81 1607.69 2560.44 1605.72 2559.88 1604.01 2559.13 1602.57 2558.14 466.686 1422.26 468.126 1423.24 469.838 1424 471.807 1424.56 474.013 1424.93 476.442 1425.16 479.074 1425.27 481.894 1425.28 484.883 1425.23 488.024 1425.14 491.301 1425.04 494.696 1424.96" class="fil1"/><polygon id="_489981888" points="532.385 1160.83 1668.27 2296.71 1668.27 2314.29 532.385 1178.41" class="fil1"/><polygon id="_489981960" points="848.455 1355.66 1984.34 2491.54 1978.88 2490.79 1973.34 2490.01 1967.73 2489.21 1962.06 2488.38 1956.34 2487.53 1950.57 2486.66 1944.78 2485.77 1938.95 2484.87 1933.12 2483.96 1927.27 2483.03 1921.43 2482.09 1915.6 2481.15 1909.8 2480.2 1904.02 2479.24 1898.29 2478.29 1892.6 2477.33 1886.97 2476.37 1881.41 2475.42 1875.92 2474.48 1870.52 2473.54 1865.21 2472.61 1860.01 2471.69 1854.92 2470.79 1849.96 2469.9 1845.12 2469.03 1840.43 2468.18 1835.88 2467.36 1831.49 2466.55 1827.27 2465.77 1823.23 2465.02 1819.38 2464.29 1815.72 2463.6 679.835 1327.72 683.495 1328.41 687.351 1329.13 691.393 1329.89 695.612 1330.67 700 1331.47 704.545 1332.3 709.241 1333.15 714.076 1334.02 719.043 1334.91 724.132 1335.81 729.334 1336.73 734.639 1337.66 740.039 1338.59 745.525 1339.54 751.087 1340.49 756.716 1341.45 762.405 1342.4 768.14 1343.36 773.917 1344.31 779.723 1345.26 785.551 1346.21 791.391 1347.15 797.234 1348.07 803.072 1348.99 808.894 1349.89 814.692 1350.78 820.456 1351.65 826.178 1352.5 831.847 1353.32 837.457 1354.13 842.996 1354.9" class="fil1"/><polygon id="_489981480" points="1577.27 1159.42 2713.15 2295.3 2714.63 2296.93 2715.96 2298.7 2717.11 2300.6 2718.07 2302.61 2718.85 2304.72 2719.41 2306.93 2719.76 2309.21 2719.88 2311.56 1584 1175.68 1583.88 1173.33 1583.53 1171.04 1582.97 1168.84 1582.19 1166.73 1581.23 1164.72 1580.07 1162.82 1578.75 1161.05" class="fil1"/><polygon id="_489981744" points="1584 1175.68 2719.88 2311.56 2719.76 2313.91 2719.41 2316.19 2718.85 2318.39 2718.07 2320.51 2717.11 2322.52 2715.96 2324.41 2714.63 2326.18 2713.15 2327.82 2711.51 2329.3 2709.74 2330.62 2707.85 2331.77 2705.84 2332.74 2703.73 2333.52 2701.52 2334.08 2699.24 2334.43 2696.89 2334.55 1561.01 1198.67 1563.36 1198.55 1565.64 1198.2 1567.85 1197.63 1569.96 1196.86 1571.97 1195.89 1573.86 1194.74 1575.63 1193.42 1577.27 1191.93 1578.75 1190.3 1580.07 1188.53 1581.23 1186.63 1582.19 1184.63 1582.97 1182.51 1583.53 1180.31 1583.88 1178.03" class="fil1"/></g><path id="_517130512" d="M1387.17 855.001c77.0162,77.0174 126.461,181.604 132.258,297.684l41.5855 0c12.6969,0 22.9902,10.2945 22.9902,22.9914 0,12.6969 -10.2933,22.9902 -22.9902,22.9902l-63.7678 0c-0.0779528,0.0011811 -0.157087,0.0011811 -0.23504,0.0011811l-260.173 -0.0011811c15.7571,1.62874 27.6567,5.73426 34.8071,14.7118 8.97638,11.2689 10.7492,21.9 7.02048,31.878 1.51181,0.506693 2.98819,1.0689 4.42914,1.68189 -6.45827,20.661 -38.2819,37.4233 -79.4953,50.8158 -0.0921261,-0.129921 -0.184252,-0.259843 -0.276378,-0.388583 -83.3871,32.015 -206.959,50.7402 -225.993,54.7465 -59.5973,12.5398 -54.8634,13.6099 -128.87,3.54449 -57.7808,-7.8567 -130.648,-20.726 -168.62,-27.9378 -20.0055,-3.79725 -39.0036,-4.97717 -57.3934,-3.07087 -17.6929,1.83425 -35.054,6.57048 -52.4776,14.6291 -4.93465,2.73898 -21.4075,7.20591 -37.5792,10.0016l0 66.1323c0,12.6969 -15.3095,9.51969 -34.1929,9.51969 -18.8835,0 -34.1929,3.17717 -34.1929,-9.51969l0 -254.581c0,-12.6969 15.3095,-8.02323 34.1929,-8.02323 18.8835,0 34.1929,-4.67363 34.1929,8.02323l0 17.5784c25.7481,-21.5669 47.517,-52.5296 85.9028,-72.3154 14.9953,-97.3713 60.9638,-184.528 127.526,-251.092 68.7863,-68.7851 159.565,-115.578 260.881,-128.923 -5.83583,-10.1244 -9.17481,-21.8681 -9.17481,-34.3902 0,-19.0441 7.72205,-36.287 20.2028,-48.7678 12.4807,-12.4819 29.726,-20.204 48.7678,-20.204 19.0429,0 36.2859,7.72205 48.7678,20.204 12.4807,12.4807 20.2028,29.7236 20.2028,48.7678 0,12.5221 -3.33898,24.2669 -9.17481,34.3937 101.316,13.3441 192.096,60.1347 260.881,128.92z" class="fil1"/></g></g><path d="M1024 -0.0011811c565.541,0 1024,458.461 1024,1024 0,565.541 -458.461,1024 -1024,1024 -565.541,0 -1024,-458.461 -1024,-1024 0,-565.541 458.461,-1024 1024,-1024z" class="fil2"/><path d="M1115.26 740.454c-12.4819,12.4819 -29.7248,20.204 -48.7678,20.204 -19.0417,0 -36.287,-7.72205 -48.7678,-20.204 -12.4807,-12.4807 -20.2028,-29.7248 -20.2028,-48.7666 0,-19.0441 7.72205,-36.287 20.2028,-48.7678 12.4807,-12.4819 29.726,-20.204 48.7678,-20.204 19.0429,0 36.2859,7.72205 48.7678,20.204 12.4807,12.4807 20.2028,29.7236 20.2028,48.7678 0,19.0417 -7.72205,36.2859 -20.2028,48.7666z" class="fil3"/><path d="M1066.49 1198.67l-430.517 0c-12.6969,0 -22.9914,-10.2933 -22.9914,-22.9902 0,-125.23 50.7626,-238.606 132.832,-320.677 82.0701,-82.069 195.447,-132.83 320.677,-132.83 125.23,0 238.606,50.7615 320.677,132.83 82.069,82.0701 132.83,195.447 132.83,320.677 0,12.6969 -10.2933,22.9902 -22.9902,22.9902l-430.517 0z" class="fil4"/><path d="M1066.49 722.17l0.655512 0.00354331c124.969,0.177165 238.095,50.9008 320.021,132.827 82.069,82.0701 132.83,195.447 132.83,320.677 0,12.6969 -10.2933,22.9902 -22.9902,22.9902l-430.323 0 -0.193701 0 0 -476.497z" class="fil5"/><path d="M1066.49 1198.67l-430.517 0c-12.6969,0 -22.9914,-10.2933 -22.9914,-22.9902 0,-125.23 50.7626,-238.606 132.832,-320.677 82.0701,-82.069 195.447,-132.83 320.677,-132.83l0 476.497z" class="fil4"/><path d="M571.972 1152.68c-12.6969,0 -22.9914,10.2945 -22.9914,22.9914 0,12.6969 10.2945,22.9902 22.9914,22.9902l989.038 0c12.6969,0 22.9902,-10.2933 22.9902,-22.9902 0,-12.6969 -10.2933,-22.9914 -22.9902,-22.9914l-989.038 0z" class="fil6"/><path d="M1231.24 1242.07c4.00866,1.05118 6.62953,2.56299 4.48229,-0.132284 -0.506693,-0.636615 -1.93228,-0.368504 -4.48229,0.132284z" class="fil3"/><polygon points="559.976 1163.14 559.309 1162.57 559.973 1163.14" class="fil7"/><path d="M1057.09 1213.22c52.037,-4.68426 107.365,-9.66851 154.557,-15.1417 1.2626,-0.216142 2.56181,-0.328347 3.88701,-0.328347 26.4827,0 46.0158,2.96811 56.1024,15.6319 66.4878,83.4662 -262.249,131.984 -294.316,138.734 -59.5973,12.5398 -54.8634,13.6099 -128.87,3.54449 -57.7808,-7.8567 -130.648,-20.726 -168.62,-27.9378 -20.0055,-3.79725 -39.0036,-4.97717 -57.3934,-3.07087 -17.6929,1.83425 -35.054,6.57048 -52.4776,14.6291 -10.578,5.87126 -74.1686,19.6831 -74.1686,7.95119l-4.9004 -146.676c51.9473,-12.2244 72.0934,-68.7615 132.943,-97.1835 46.3323,-13.9902 99.8623,-20.7496 122.792,-20.0693 25.2898,0.747638 50.7284,-3.93898 71.726,-7.80827 21.8764,-4.02992 39.7004,-7.31457 53.9445,-4.08307 12.0862,2.74252 21.678,10.1917 27.6095,20.0162 4.25906,7.05355 6.60237,15.4335 6.54567,24.1642 -0.0555119,8.56418 -2.39528,17.361 -7.47756,25.4067 -7.09607,11.2335 -19.3358,20.9551 -37.8425,25.8945 -13.8319,3.68977 -29.6138,6.64843 -45.1855,9.56812 -7.78229,1.45866 -15.5421,2.91378 -18.9496,3.59882 -20.3622,4.09843 -38.2937,4.19055 -39.4607,5.70591 0.15,0.719292 0.264567,1.45158 0.344882,2.19449 2.11063,1.40315 25.5768,9.14528 54.5894,18.2728 102.526,32.2547 138.1,16.5768 244.621,6.98741z" class="fil8"/><path d="M1283.09 1246.94c-6.45945,20.661 -38.2819,37.4233 -79.4953,50.8158 -12.0473,-16.8709 -14.6575,-32.4425 15.7264,-46.7304 23.9953,-11.2843 46.5012,-11.4402 63.7689,-4.08544z" class="fil9"/><path d="M532.385 1160.83c0,-12.6969 -15.3095,-8.02323 -34.1929,-8.02323 -18.8835,0 -34.1929,-4.67363 -34.1929,8.02323l0 254.581c0,12.6969 15.3095,9.51969 34.1929,9.51969 18.8835,0 34.1929,3.17717 34.1929,-9.51969l0 -254.581z" class="fil10"/><path d="M907.468 1101.18c6.95788,22.291 -3.68622,45.541 -34.8544,55.2685 -31.1681,9.72875 -40.6441,-7.14449 -47.602,-29.4366 -6.95788,-22.291 -8.76142,-41.5583 22.4067,-51.287 31.1681,-9.72875 53.093,3.16418 60.0497,25.4551z" class="fil11"/><polygon points="565.408 1199.41 564.741 1198.85 565.405 1199.41" class="fil7"/></g></svg>