<svg xmlns="http://www.w3.org/2000/svg" xmlns:xlink="http://www.w3.org/1999/xlink" width="2048" height="2048" xml:space="preserve" style="shape-rendering:geometricPrecision;text-rendering:geometricPrecision;image-rendering:optimizeQuality;fill-rule:evenodd;clip-rule:evenodd" viewBox="0 0 2048 2048"><defs><style type="text/css">.fil1{fill:none}.fil0{fill:#424242;fill-rule:nonzero}</style></defs><g id="Layer_x0020_1"><metadata id="CorelCorpID_0Corel-Layer"/><path d="M681.192 805.375l201.914 -45.9095c0.498426,-0.153543 1.00039,-0.298819 1.51063,-0.429922 17.1118,-4.41496 34.5662,5.87717 38.9811,22.989l-30.9851 7.99607 30.8752 -7.8756 118.025 457.326c1.26142,3.48071 1.93701,7.24253 1.90394,11.1626l-0.124016 -0.0011811 -3.76063 453.813 0.0188977 0.259843 0.0129921 0.212599 0.0354331 0.615355 0.00708662 0.214961 0.0188977 0.569292 0.00236221 0.0933072 -0.0011811 0 0.00708662 0.594095 0 0.00708662 -0.109843 0c0.255118,6.50552 3.09685,12.378 7.5319,16.65 4.14213,3.98977 9.65906,6.54804 15.7441,6.89646l0.121654 -0.00708662 0.141732 -0.00944883 0.677953 -0.0377953 0.165354 -0.00590552 0.61063 -0.0200788 0.0897638 -0.00236221 0 0.0011811 0.588189 -0.00708662 0.00708662 0 0 0.109843c6.51024,-0.253937 12.385,-3.09803 16.6559,-7.5319 4.40197,-4.56851 7.06182,-10.8154 6.93544,-17.6469l-8.61379 -462.453c-0.229134,-2.14134 -0.244488,-4.33819 -0.0259843,-6.56575 1.72677,-17.5878 17.387,-30.4465 34.9748,-28.7197l-3.12756 31.8473 3.1252 -31.7504c17.3374,1.70197 35.5347,2.3752 53.6445,2.03858 17.1366,-0.318898 34.4162,-1.56732 51.0225,-3.7252 1.95591,-0.413386 3.97677,-0.649607 6.04961,-0.688583 17.6693,-0.328347 32.263,13.7291 32.5914,31.3984l-31.9949 0.596457 31.8756 -0.499607 8.66812 465.39c0.124016,6.70985 3.00118,12.776 7.54725,17.1567 4.56851,4.40079 10.813,7.05945 17.6469,6.93308 6.70867,-0.124016 12.776,-3.00118 17.1567,-7.54843 4.40197,-4.56851 7.06064,-10.8154 6.93426,-17.6469 -1.09488,-58.7823 -0.242126,-117.559 0.611811,-176.349 1.65827,-114.249 3.3189,-228.574 -9.73111,-342.02 -8.46733,-73.6312 -31.7646,-145.693 -55.0583,-217.752 -12.0071,-37.1398 -24.013,-74.2843 -33.8847,-110.659 -2.78386,-8.52284 -1.99016,-18.1618 2.99528,-26.4473 9.11103,-15.1429 28.7752,-20.0315 43.9181,-10.9205l-0.0519685 0.0874016 219.989 132.376c1.0311,0.514961 2.04449,1.08898 3.03544,1.72559l-0.0354331 0.0543308c9.73583,6.24804 18.9685,5.2252 25.5343,0.543308 3.00591,-2.14252 5.66339,-5.0126 7.80119,-8.33977 2.11536,-3.29292 3.61181,-6.90355 4.31929,-10.5661 1.47047,-7.61103 -1.12323,-16.0429 -9.88347,-22.2189l-0.424016 -0.248032 0.0200788 -0.0330709c-0.251575,-0.17126 -0.507874,-0.341339 -0.770079,-0.510237l0.0129921 -0.0188977c-21.991,-13.265 -57.1607,-35.6386 -97.5461,-61.3311 -102.415,-65.1556 -239.463,-152.342 -289.166,-171.443 -2.66929,-0.720473 -5.28662,-1.79882 -7.78938,-3.25748l0.0377953 -0.0649607c-59.5867,-34.6288 -197.465,9.31536 -302.873,42.9118 -29.9327,9.53977 -57.4642,18.3177 -79.5863,24.2469 -2.10236,0.718111 -4.31339,1.22835 -6.60945,1.5 -17.55,2.07638 -33.463,-10.4681 -35.5394,-28.0181l31.7788 -3.76063 -31.7504 3.75 -14.2571 -120.488c-0.261024,-1.59567 -0.403937,-3.2315 -0.419292,-4.89804l31.9984 -0.301181 -31.8756 0.250394c-0.0401575,-4.31103 -5.64804,-8.57245 -12.7795,-11.1898 -3.92835,-1.44095 -8.04213,-2.20394 -11.9835,-2.14606 -3.47244,0.0507874 -6.83268,0.731103 -9.77481,2.14488 -7.54725,3.62835 -13.3004,13.9099 -13.1811,33.8433l20.2689 187.263c1.76102,1.6748 3.94134,3.17835 6.63071,4.27796 4.87796,1.9937 11.635,2.9941 20.941,2.21811z" class="fil0"/><path d="M869.505 827.992l-176.288 40.0843 0.0212599 0.0944883c-2.18268,0.496063 -4.363,0.755906 -6.51615,0.797245 -20.2606,1.70906 -36.8953,-1.26142 -50.4709,-6.81024 -19.9666,-8.1626 -32.6351,-21.4854 -40.5508,-34.3276l27.1252 -16.7504 -27.241 16.7917c-2.99173,-4.85433 -4.52953,-10.1941 -4.73622,-15.5138l-21.0898 -194.844 -0.0708662 0.00708662c-0.212599,-1.96654 -0.240945,-3.91063 -0.101575,-5.81457 -0.274016,-49.0784 21.3236,-77.9138 49.4457,-91.4339 11.5524,-5.55355 24.0626,-8.21103 36.5244,-8.39528 11.9929,-0.179528 23.8914,1.91929 34.7339,5.89725 29.2654,10.7398 52.5615,35.2996 54.4134,67.2485l10.0039 84.5493c13.7138,-4.18819 28.2154,-8.80985 43.3737,-13.6406 116.126,-37.0134 267.714,-85.3135 351.946,-38.6244 56.3658,21.6295 196.545,110.809 301.343,177.48 39.378,25.0512 73.604,46.8248 96.9083,60.8493l-16.3748 27.3756 16.5 -27.4181c0.994489,0.598819 1.94291,1.2437 2.84764,1.92874 33.6331,22.6984 43.2142,56.2985 37.2095,87.3745 -2.27244,11.7567 -6.87993,23.0445 -13.3193,33.0662 -6.41575,9.98623 -14.7673,18.8622 -24.5516,25.839 -26.3138,18.7677 -61.7457,23.8795 -97.0454,1.2l0.011811 -0.0188977 -0.011811 -0.00708662 -0.0472441 0.0732284c-0.453544,-0.291733 -0.897638,-0.591733 -1.3311,-0.902363l-149.391 -89.895c3.33071,10.4551 6.69922,20.8736 10.0665,31.291 24.3343,75.2776 48.6721,150.559 57.8079,230.002 13.3748,116.276 11.6764,233.188 9.9815,350.021 -0.84567,58.2993 -1.69134,116.583 -0.611811,174.599 0.453544,24.3768 -9.01418,46.6311 -24.6862,62.8973 -15.6921,16.2886 -37.6536,26.5925 -62.1567,27.0484 -24.378,0.453544 -46.63,-9.013 -62.8973,-24.6851 -16.2851,-15.6933 -26.5914,-37.6536 -27.0473,-62.1567l-8.02323 -430.765c-8.39764,0.537402 -16.9028,0.887009 -25.4386,1.04528 -8.44843,0.157087 -16.8898,0.124016 -25.252,-0.100394l8.02678 430.953c0.453544,24.3792 -9.01418,46.63 -24.6874,62.8973 -15.6721,16.265 -37.5969,26.5654 -62.0623,27.0449l0.00236221 0.121654 -0.595276 0.00354331 0 0.00236221 -0.00708662 0 -0.132284 -0.0011811 -0.382677 -0.00590552 -0.4063 -0.00708662 -0.434646 -0.0165354 -0.4063 -0.0177165 -0.396851 -0.0259843 -0.403937 -0.0283465 -0.269292 -0.022441c-23.0658,-0.427559 -44.0386,-9.73229 -59.5583,-24.6851 -16.2638,-15.6685 -26.5595,-37.5898 -27.0449,-62.0504l-0.121654 0.00236221 -0.00354331 -0.601182 -0.00236221 0 0 -0.00708662 0.0011811 -0.129921 0.00472441 -0.366142 0.00826772 -0.431103 0.0153543 -0.393307 0.0200788 -0.454725 0.0200788 -0.318898 0.034252 -0.490158 0.0295276 -0.329528 0.0153543 -0.170079 3.72638 -449.686 -110.003 -426.242z" class="fil0"/><path d="M822.931 329.257c19.2732,-33.5091 51.2776,-59.654 91.441,-70.4847 40.0642,-10.8059 80.8182,-4.29213 114.315,14.9728 33.5091,19.2732 59.654,51.2776 70.4871,91.4398 10.8047,40.0677 4.29095,80.8205 -14.9752,114.317 -19.2732,33.5091 -51.2776,59.654 -91.4387,70.4859 -40.0654,10.8059 -80.8217,4.29213 -114.318,-14.974 -33.5091,-19.2732 -59.654,-51.2776 -70.4859,-91.4398 -10.8059,-40.0654 -4.29095,-80.8205 14.974,-114.317z" class="fil0"/><path d="M930.872 320.523c-23.2028,6.2563 -41.641,21.2717 -52.6914,40.4847 -11.0575,19.226 -14.7567,42.7689 -8.47323,66.0662 6.25749,23.2016 21.2729,41.6398 40.4859,52.6902 19.226,11.0575 42.7689,14.7567 66.0674,8.47323 23.2004,-6.25749 41.6386,-21.2729 52.689,-40.4859 11.0575,-19.226 14.7567,-42.7689 8.47442,-66.0662 -6.25749,-23.2004 -21.274,-41.6398 -40.487,-52.6902 -19.2248,-11.0563 -42.7677,-14.7555 -66.065,-8.47205z" class="fil0"/><path d="M767.819 487.712c12.4264,-4.50473 18.848,-18.2303 14.3433,-30.6567 -4.50473,-12.4264 -18.2303,-18.848 -30.6567,-14.3433l-269.781 97.8875c-12.4264,4.50473 -18.848,18.2303 -14.3433,30.6567 4.50473,12.4264 18.2303,18.848 30.6567,14.3433l269.781 -97.8875z" class="fil0"/><path d="M719.754 438.726c-19.9335,7.22599 -30.2351,29.2441 -23.0091,49.1776 7.22599,19.9335 29.2441,30.2351 49.1776,23.0091l24.1878 -8.82993c19.9335,-7.22599 30.2351,-29.2441 23.0091,-49.1776 -7.22599,-19.9335 -29.2441,-30.2351 -49.1776,-23.0091l-24.1878 8.82993z" class="fil0"/></g><rect width="2048" height="2048" class="fil1"/></svg>